Coordinates
version=1
nRows=5
nColumns=63
inDegrees=yes

Units are S.I. units (second, meters, Newtons, ...)
If the header above contains a line with 'inDegrees', this indicates whether rotational values are in degrees (yes) or radians (no).

endheader
time	pelvis_tilt	pelvis_list	pelvis_rotation	pelvis_tx	pelvis_ty	pelvis_tz	hip_flexion_r	hip_adduction_r	hip_rotation_r	knee_angle_r	knee_angle_r_beta	ankle_angle_r	subtalar_angle_r	mtp_angle_r	hip_flexion_l	hip_adduction_l	hip_rotation_l	knee_angle_l	knee_angle_l_beta	ankle_angle_l	subtalar_angle_l	mtp_angle_l	L5_S1_Flex_Ext	L5_S1_Lat_Bending	L5_S1_axial_rotation	L4_L5_Flex_Ext	L4_L5_Lat_Bending	L4_L5_axial_rotation	L3_L4_Flex_Ext	L3_L4_Lat_Bending	L3_L4_axial_rotation	L2_L3_Flex_Ext	L2_L3_Lat_Bending	L2_L3_axial_rotation	L1_L2_Flex_Ext	L1_L2_Lat_Bending	L1_L2_axial_rotation	L1_T12_Flex_Ext	L1_T12_Lat_Bending	L1_T12_axial_rotation	Abs_r3	Abs_r2	Abs_r1	Abs_t1	Abs_t2	neck_flexion	neck_bending	neck_rotation	arm_flex_r	arm_add_r	arm_rot_r	elbow_flex_r	pro_sup_r	wrist_flex_r	wrist_dev_r	arm_flex_l	arm_add_l	arm_rot_l	elbow_flex_l	pro_sup_l	wrist_flex_l	wrist_dev_l
      7.47457627	      3.10765658	     -8.11129575	     90.31373785	      0.09069792	      0.95948885	      0.39369713	      6.18450685	      3.01003227	     21.25394478	      0.44321392	      0.00773554	     18.00750220	    -14.32104827	      0.00000000	      3.55817221	     -5.64652951	    -10.76038174	      0.98117993	      0.01712482	     22.55421729	     12.12697984	      0.00000000	     -0.10188721	     -0.07581173	      1.03321590	     -0.18921474	     -0.10082960	      1.09779189	     -0.16739050	     -0.18432864	      1.09779189	     -0.11644689	     -0.18432864	      0.90406391	     -0.09461246	     -0.15459528	      0.83948792	     -0.05821835	     -0.11743237	      0.77491192	     -0.72777015	     -0.85759743	      5.74643686	      0.00000000	      0.00000000	     25.48390062	     -1.19444095	      6.90911717	      7.88845439	     -6.17281224	    116.21877908	      4.69363230	      4.09729681	     -8.24305054	     -8.00898935	     10.41923522	     -6.19856471	    123.49481086	      3.04378419	      4.82801840	    -14.51434651	     -1.70766743
      7.49152542	      3.11621116	     -8.12990998	     90.53225645	      0.08969289	      0.95972920	      0.39349228	      6.13980150	      2.93296264	     21.28998717	      0.44137402	      0.00770343	     17.77240579	    -14.41308540	      0.00000000	      3.60325811	     -5.59475606	    -10.15384822	      0.82877574	      0.01446487	     22.52258319	     11.81048099	      0.00000000	     -0.10644702	     -0.06241509	      1.02568110	     -0.19768276	     -0.08301208	      1.08978617	     -0.17488181	     -0.15175606	      1.08978617	     -0.12165830	     -0.15175606	      0.89747096	     -0.09884670	     -0.12727686	      0.83336589	     -0.06082383	     -0.09668098	      0.76926083	     -0.76034043	     -0.70605203	      5.70453058	      0.00000000	      0.00000000	     25.53685566	     -1.25560550	      7.05013376	      7.84949141	     -6.27801971	    115.43695227	      4.95022853	      3.88481513	     -8.39677807	     -8.35314173	     10.55007007	     -6.00789010	    125.35826693	      2.67269929	      5.69477469	    -15.31600723	     -0.91685685
      7.50847458	      3.07486818	     -8.16289071	     90.60544622	      0.08889037	      0.96009793	      0.39353785	      6.15921549	      2.82723006	     21.24567046	      0.44125325	      0.00770132	     17.53434907	    -14.48827475	      0.00000000	      3.69228170	     -5.50502824	     -9.24765340	      0.68991912	      0.01204136	     22.65138652	     11.09713611	      0.00000000	     -0.11343068	     -0.05444074	      1.04559630	     -0.21065211	     -0.07240618	      1.11094607	     -0.18635526	     -0.13236722	      1.11094607	     -0.12963992	     -0.13236722	      0.91489676	     -0.10533173	     -0.11101556	      0.84954699	     -0.06481429	     -0.08432871	      0.78419722	     -0.81022398	     -0.61584454	      5.81529293	      0.00000000	      0.00000000	     25.60565193	     -1.82326074	      6.80608480	      7.86292212	     -6.40838756	    114.08942398	      5.36700414	      4.02110195	     -8.83371411	     -8.94939937	     10.72932505	     -5.81689972	    128.07849888	      2.19620553	      6.35164747	    -16.01716392	      0.17736675
      7.52542373	      3.02202660	     -8.19471027	     90.63072997	      0.08797388	      0.96051682	      0.39367020	      6.21294598	      2.70815553	     20.99142910	      0.44494422	      0.00776574	     17.45533746	    -14.27882390	      0.00000000	      3.80262181	     -5.38735633	     -7.62201101	      0.57690878	      0.01006896	     22.74149333	      9.29194411	      0.00000000	     -0.12029509	     -0.04058783	      1.05627699	     -0.22340000	     -0.05398181	      1.12229431	     -0.19763280	     -0.09868524	      1.12229431	     -0.13748525	     -0.09868524	      0.92424237	     -0.11170602	     -0.08276670	      0.85822506	     -0.06873661	     -0.06287054	      0.79220775	     -0.85925577	     -0.45913762	      5.87469576	      0.00000000	      0.00000000	     25.63412369	     -2.52534910	      6.62531560	      7.91750184	     -6.65092031	    111.77687309	      5.95205355	      4.89940736	     -9.25211486	     -9.63502332	     10.86995270	     -5.62421419	    131.77791262	      1.69191581	      5.86251882	    -16.37648019	      1.10985709
      7.54237288	      2.90211643	     -8.22432649	     90.55285994	      0.08709946	      0.96095990	      0.39393089	      6.29095901	      2.52606183	     20.91049880	      0.43742980	      0.00763459	     17.25481887	    -14.19784698	      0.00000000	      3.90007365	     -5.21549600	     -7.40436721	      0.51334887	      0.00895963	     23.19682373	      9.32189205	      0.00000000	     -0.12572856	     -0.03062397	      1.06369847	     -0.23349052	     -0.04072988	      1.13017962	     -0.20655946	     -0.07445912	      1.13017962	     -0.14369518	     -0.07445912	      0.93073616	     -0.11675155	     -0.06244840	      0.86425501	     -0.07184130	     -0.04743653	      0.79777385	     -0.89806656	     -0.34642449	      5.91597178	      0.00000000	      0.00000000	     25.56986221	     -2.97499731	      6.68250754	      8.09131811	     -6.77578928	    111.80154555	      6.10734234	      4.97201712	     -9.35195785	     -9.88830190	     10.91663042	     -5.48875553	    132.25112461	      1.49101659	      6.32796785	    -16.59796073	      1.08443708
